<svg xmlns="http://www.w3.org/2000/svg" width="39.376" height="70" viewBox="0 0 39.376 70">
  <defs>
    <style>
      .cls-1 {
        fill: #efefef;
      }
    </style>
  </defs>
  <path id="Icon_awesome-map-pin" data-name="Icon awesome-map-pin" class="cls-1" d="M15.313,43.332V64.755l3.011,4.515a1.641,1.641,0,0,0,2.73,0l3.009-4.515V43.332a23.085,23.085,0,0,1-8.75,0ZM19.688,0A19.688,19.688,0,1,0,39.376,19.688,19.688,19.688,0,0,0,19.688,0Zm0,10.391a9.307,9.307,0,0,0-9.3,9.3,1.641,1.641,0,1,1-3.281,0A12.593,12.593,0,0,1,19.688,7.11a1.641,1.641,0,1,1,0,3.281Z"/>
</svg>
