<svg xmlns="http://www.w3.org/2000/svg" width="70" height="49.219" viewBox="0 0 70 49.219">
  <defs>
    <style>
      .cls-1 {
        fill: #efefef;
      }
    </style>
  </defs>
  <path id="Icon_awesome-youtube" data-name="Icon awesome-youtube" class="cls-1" d="M69.587,12.2A8.8,8.8,0,0,0,63.4,5.972C57.939,4.5,36.05,4.5,36.05,4.5S14.16,4.5,8.7,5.972A8.8,8.8,0,0,0,2.513,12.2C1.05,17.7,1.05,29.159,1.05,29.159s0,11.464,1.463,16.958A8.665,8.665,0,0,0,8.7,52.246c5.459,1.472,27.348,1.472,27.348,1.472s21.889,0,27.348-1.472a8.665,8.665,0,0,0,6.189-6.129c1.463-5.494,1.463-16.958,1.463-16.958s0-11.464-1.463-16.958Zm-40.7,27.366V18.751l18.3,10.408-18.3,10.408Z" transform="translate(-1.05 -4.5)"/>
</svg>
