<?xml version="1.0" encoding="UTF-8"?>
<svg id="Calque_2" data-name="Calque 2" xmlns="http://www.w3.org/2000/svg" viewBox="0 0 2889.8 2064.25">
  <g id="Calque_2-2" data-name="Calque 2">
    <g>
      <g>
        <path d="M1444.83,1693.77v312.13c-240.31-17.08-240.7-363.77-240.7-363.77,53.58,154.9,180.91,89.68,230.61,56.29v-5.44c3.1,.39,6.6,.78,10.09,.78Z"/>
        <path d="M1204.28,539.69c87.74,0,167.71-2.33,240.7-3.88V168.55c-8.54,0-17.08,0-26.01,.39-142.09-3.5-262.44,11.65-364.16,38.43h-.39c-4.27,.78-8.54,1.94-12.42,3.11h-.39c-94.34,25.62-172.37,60.95-236.82,101.33h-.39c-178.97,111.03-254.68,257.78-282.24,326.5v.39c-9.71,24.07-13.2,38.82-13.2,38.82-19.03,82.69-43.09,151.8-70.66,209.25-1.94,4.66-3.88,9.32-6.21,13.59C268.27,1230.73,0,1163.96,0,1163.96c0,0,40.38,187.51,165,209.64,0,0-35.33,102.49-165,93.56,0,0,26.01,346.3,561.37,597.09,0,0-43.48-187.9,64.06-368.04,29.89,8.54,66,6.21,109.09-13.98,32.61-15.14,60.95-36.49,88.9-60.56,6.21-5.44,12.42-11.26,19.02-17.08,18.63-17.08,37.66-35.72,58.23-54.35,13.59-12.42,27.56-24.84,42.71-37.27,9.32-7.38,18.63-15.14,28.73-22.91,10.48-7.38,20.96-15.14,32.22-22.13,8.54-5.82,17.86-11.65,27.56-17.08,24.07-13.98,50.08-26.79,79.59-38.05,11.65-4.66,23.68-8.93,36.1-13.2,38.05-12.42,80.75-22.52,129.28-29.12,17.86-2.33,33.39-11.26,44.26-23.68,2.72-3.1,5.44-6.6,7.76-9.71q-.39-.39,0-.39c1.94-3.88,3.88-7.38,5.43-11.65,3.11-8.15,5.05-17.47,4.66-26.79l-10.48-447.62c-.39-13.2-4.27-26.01-11.26-36.49-1.94-3.88-4.66-6.99-7.76-10.09-11.26-12.42-26.79-20.58-44.65-22.13h-.39s0-.39-.39,0c-31.45-2.72-67.16-6.21-107.93-10.87-104.04-12.03-282.24,34.16-431.32,135.88-10.48,6.99-20.58,14.36-30.67,21.74-19.8,15.14-39.21,31.45-57.46,48.53-6.6,6.21-13.2,12.81-19.41,19.41-57.85,59.01-104.04,128.89-129.67,210.03,2.72-21.35,91.62-666.97,716.67-666.97Zm-276.03,595.15c22.13-25.62,55.52-41.93,93.56-41.93,24.85,0,48.14,6.99,67.55,19.41,32.22,20.57,53.19,55.13,53.19,94.73s-20.96,73.38-52.41,93.95c-19.41,12.81-43.09,20.19-68.33,20.19-33.39,0-63.28-12.81-85.02-33-22.13-20.57-36.1-49.3-36.1-81.14,0-27.56,10.48-52.8,27.56-72.21Z"/>
        <path d="M1054.81,207.37h-.39C651.83-102.05,286.51,26.46,286.51,26.46c-108.31,458.49,79.2,763.64,151.8,860.31,16.69,22.13,27.18,33.39,27.18,33.39L1065.68,215.91c-3.49-2.72-7.38-5.82-10.87-8.54Zm-532.65,430.93c-18.63-21.74-125.4-157.23-88.51-376.58,2.33-14.75,10.48-27.95,22.13-36.49,6.99-5.05,15.14-8.54,24.07-9.71,61.34-8.93,188.68-10.09,324.56,96.28-178.97,111.03-254.68,257.78-282.24,326.5Z"/>
        <path d="M1444.83,1464.33v229.44c-3.5,0-6.99-.39-10.09-.78-26.4-3.1-51.64-17.86-66.77-43.87l-14.76-25.62-49.31-85.02c-19.02-33,4.66-74.15,42.71-74.15h98.22Z"/>
        <path d="M1444.83,1693.77v312.13c-240.31-17.08-240.7-363.77-240.7-363.77,53.58,154.9,180.91,89.68,230.61,56.29v-5.44c3.1,.39,6.6,.78,10.09,.78Z"/>
        <path d="M1328.9,850.27c-.39-13.2-4.27-26.01-11.65-36.1-1.94-3.88-4.66-6.99-7.76-10.09-11.26-12.42-26.79-20.58-44.65-22.13h-.39s0-.39-.39,0v-.39c-31.45-2.72-67.16-6.21-107.93-10.87-104.04-12.03-282.24,34.16-431.32,136.27-10.48,6.99-20.58,14.36-30.67,21.74-19.8,15.14-39.21,31.45-57.46,48.53-6.6,6.21-13.2,12.81-19.41,19.41-57.85,59.01-104.04,128.89-129.67,210.03-31.06,98.22-31.83,212.75,13.98,343.19,0,0,33,121.51,123.84,145.97,29.89,8.54,66,6.21,109.09-13.98,32.61-15.14,60.95-36.49,88.9-60.56,6.21-5.44,12.42-11.26,19.02-16.69,18.63-17.47,37.66-35.72,58.23-54.35,13.59-12.42,27.56-24.84,42.71-37.27,8.93-7.76,18.63-15.53,28.73-22.91,10.48-7.38,20.96-15.14,32.22-22.13,8.54-5.82,17.86-11.65,27.56-17.08,24.07-13.98,50.08-26.79,79.59-38.05,11.65-4.66,23.68-8.93,36.1-13.2,38.05-12.42,80.75-22.52,129.28-29.12,17.86-2.33,33.39-11.26,44.26-23.68,2.72-3.1,5.44-6.6,7.76-9.71q-.39-.39,0-.39c1.94-3.88,3.88-7.38,5.43-11.65,3.11-8.15,5.05-17.47,4.66-26.79l-10.09-448.01Zm-238.76,450.73c-19.41,12.81-43.09,20.19-68.33,20.19-33.39,0-63.28-12.81-85.02-33-22.13-20.57-36.1-49.3-36.1-81.14,0-27.56,10.48-52.8,27.56-72.21,22.13-25.62,55.52-41.93,93.56-41.93,24.85,0,48.14,6.99,67.55,19.41,32.22,20.57,53.19,55.13,53.19,94.73s-20.96,73.38-52.41,93.95Z"/>
      </g>
      <g>
        <path d="M1444.98,1693.77v312.13c240.31-17.08,240.7-363.77,240.7-363.77-53.58,154.9-180.91,89.68-230.61,56.29v-5.44c-3.1,.39-6.6,.78-10.09,.78Z"/>
        <path d="M2402.19,1206.66c-25.62-81.14-71.82-151.02-129.67-210.03-6.21-6.6-12.81-13.2-19.41-19.41-18.25-17.08-37.66-33.39-57.46-48.53-10.09-7.38-20.19-14.75-30.67-21.74-149.08-101.72-327.27-147.91-431.32-135.88-40.76,4.66-76.48,8.15-107.93,10.87-.39-.39-.39,0-.39,0h-.39c-17.86,1.55-33.39,9.71-44.65,22.13-3.1,3.11-5.82,6.21-7.76,10.09-6.99,10.48-10.87,23.29-11.26,36.49l-10.48,447.62c-.39,9.32,1.55,18.64,4.66,26.79,1.55,4.27,3.49,7.76,5.43,11.65q.39,0,0,.39c2.33,3.11,5.05,6.6,7.76,9.71,10.87,12.42,26.4,21.35,44.26,23.68,48.53,6.6,91.23,16.69,129.28,29.12,12.42,4.27,24.46,8.54,36.1,13.2,29.51,11.26,55.52,24.07,79.59,38.05,9.71,5.44,19.02,11.26,27.56,17.08,11.26,6.99,21.74,14.75,32.22,22.13,10.09,7.76,19.41,15.53,28.73,22.91,15.14,12.42,29.12,24.85,42.71,37.27,20.57,18.64,39.6,37.27,58.23,54.35,6.6,5.82,12.81,11.65,19.02,17.08,27.95,24.07,56.29,45.42,88.9,60.56,43.09,20.19,79.2,22.52,109.09,13.98,107.54,180.14,64.06,368.04,64.06,368.04,535.36-250.79,561.37-597.09,561.37-597.09-129.67,8.93-165-93.56-165-93.56,124.62-22.13,165-209.64,165-209.64,0,0-268.27,66.77-432.1-263.61-2.33-4.27-4.27-8.93-6.21-13.59-27.56-57.46-51.63-126.56-70.66-209.25,0,0-3.49-14.75-13.2-38.82v-.39c-27.56-68.71-103.27-215.46-282.24-326.5h-.39c-64.44-40.38-142.48-75.7-236.82-101.33h-.39c-3.88-1.17-8.15-2.33-12.42-3.11h-.39c-101.71-26.79-222.06-41.93-364.16-38.43-8.93-.39-17.47-.39-26.01-.39v367.26c72.99,1.55,152.96,3.88,240.7,3.88,625.04,0,713.95,645.62,716.67,666.97Zm-413.07,.39c0,31.83-13.98,60.56-36.1,81.14-21.74,20.19-51.63,33-85.02,33-25.24,0-48.92-7.38-68.33-20.19-31.45-20.57-52.41-55.13-52.41-93.95,0-39.6,20.96-74.15,53.19-94.73,19.41-12.42,42.7-19.41,67.55-19.41,38.05,0,71.43,16.3,93.56,41.93,17.08,19.41,27.56,44.64,27.56,72.21Z"/>
        <path d="M1824.12,215.91l600.2,704.24s10.48-11.26,27.18-33.39c72.6-96.67,260.11-401.81,151.8-860.31,0,0-365.32-128.5-767.91,180.91h-.39c-3.49,2.72-7.38,5.82-10.87,8.54Zm261.28,95.89c135.88-106.37,263.22-105.21,324.56-96.28,8.93,1.16,17.08,4.66,24.07,9.71,11.65,8.54,19.8,21.74,22.13,36.49,36.88,219.35-69.88,354.84-88.51,376.58-27.56-68.71-103.27-215.46-282.24-326.5Z"/>
        <path d="M1444.98,1464.33v229.44c3.5,0,6.99-.39,10.09-.78,26.4-3.1,51.64-17.86,66.77-43.87l14.76-25.62,49.31-85.02c19.02-33-4.66-74.15-42.71-74.15h-98.22Z"/>
        <path d="M1444.98,1693.77v312.13c240.31-17.08,240.7-363.77,240.7-363.77-53.58,154.9-180.91,89.68-230.61,56.29v-5.44c-3.1,.39-6.6,.78-10.09,.78Z"/>
        <path d="M1550.81,1298.28c-.39,9.32,1.55,18.64,4.66,26.79,1.55,4.27,3.49,7.76,5.43,11.65q.39,0,0,.39c2.33,3.11,5.05,6.6,7.76,9.71,10.87,12.42,26.4,21.35,44.26,23.68,48.53,6.6,91.23,16.69,129.28,29.12,12.42,4.27,24.46,8.54,36.1,13.2,29.51,11.26,55.52,24.07,79.59,38.05,9.71,5.44,19.02,11.26,27.56,17.08,11.26,6.99,21.74,14.75,32.22,22.13,10.09,7.38,19.8,15.14,28.73,22.91,15.14,12.42,29.12,24.85,42.71,37.27,20.57,18.64,39.6,36.88,58.23,54.35,6.6,5.44,12.81,11.26,19.02,16.69,27.95,24.07,56.29,45.42,88.9,60.56,43.09,20.19,79.2,22.52,109.09,13.98,90.85-24.46,123.84-145.97,123.84-145.97,45.81-130.45,45.04-244.97,13.98-343.19-25.62-81.14-71.82-151.02-129.67-210.03-6.21-6.6-12.81-13.2-19.41-19.41-18.25-17.08-37.66-33.39-57.46-48.53-10.09-7.38-20.19-14.75-30.67-21.74-149.08-102.1-327.27-148.3-431.32-136.27-40.76,4.66-76.48,8.15-107.93,10.87v.39c-.39-.39-.39,0-.39,0h-.39c-17.86,1.55-33.39,9.71-44.65,22.13-3.1,3.11-5.82,6.21-7.76,10.09-7.38,10.09-11.26,22.9-11.65,36.1l-10.09,448.01Zm196.44-91.23c0-39.6,20.96-74.15,53.19-94.73,19.41-12.42,42.7-19.41,67.55-19.41,38.05,0,71.43,16.3,93.56,41.93,17.08,19.41,27.56,44.64,27.56,72.21,0,31.83-13.98,60.56-36.1,81.14-21.74,20.19-51.63,33-85.02,33-25.24,0-48.92-7.38-68.33-20.19-31.45-20.57-52.41-55.13-52.41-93.95Z"/>
      </g>
    </g>
  </g>
</svg>